<?xml version="1.0" encoding="utf-8"?>
<!-- Generator: Adobe Illustrator 26.0.1, SVG Export Plug-In . SVG Version: 6.00 Build 0)  -->
<svg version="1.1" id="Livello_1" xmlns="http://www.w3.org/2000/svg" xmlns:xlink="http://www.w3.org/1999/xlink" x="0px" y="0px"
	 viewBox="0 0 1080 1080" style="enable-background:new 0 0 1080 1080;" xml:space="preserve">
<style type="text/css">
	.st0{fill:#FFFFFF;}
	.st1{fill:url(#SVGID_1_);}
	.st2{fill:url(#SVGID_00000114064852150688762490000013598448917568786591_);}
	.st3{fill:none;stroke:#000000;stroke-width:12;stroke-miterlimit:10;}
	.st4{fill:none;stroke:#2F3C4E;stroke-width:12;stroke-miterlimit:10;}
	.st5{fill:url(#SVGID_00000041988306678878458180000016319979237986327173_);}
	.st6{fill:#4D7493;}
	.st7{fill:#F2DC42;}
	.st8{stroke:#000000;stroke-width:2;stroke-miterlimit:10;}
	.st9{fill:url(#SVGID_00000015331726891825061660000001463434560300507524_);}
	.st10{fill:url(#SVGID_00000059311523647844216400000018262982243774407091_);}
	.st11{fill:url(#SVGID_00000114761177695061529960000015168779460691324308_);}
	.st12{fill:url(#SVGID_00000166650541210466635210000016023562655009598869_);}
	.st13{fill:url(#SVGID_00000038414881806126678460000016254717837840558753_);}
	.st14{fill:url(#SVGID_00000072241287587776792510000009374853717995496601_);}
	.st15{fill:url(#SVGID_00000084493904458228857190000006413686904739481759_);}
	.st16{fill:url(#SVGID_00000106141943424951543920000015410381055425757848_);}
</style>
<path class="st3" d="M861.49,649.23H316.81c-77.28,0-140.51-63.23-140.51-140.51v0c0-77.28,63.23-140.51,140.51-140.51h544.67
	c77.28,0,140.51,63.23,140.51,140.51v0C1002,586,938.77,649.23,861.49,649.23z"/>
<path class="st7" d="M787.41,712.47H242.74c-77.28,0-140.51-63.23-140.51-140.51v0c0-77.28,63.23-140.51,140.51-140.51h544.67
	c77.28,0,140.51,63.23,140.51,140.51v0C927.92,649.23,864.69,712.47,787.41,712.47z"/>
</svg>
