<?xml version="1.0" encoding="utf-8"?>
<!-- Generator: Adobe Illustrator 26.0.1, SVG Export Plug-In . SVG Version: 6.00 Build 0)  -->
<svg version="1.1" id="Livello_1" xmlns="http://www.w3.org/2000/svg" xmlns:xlink="http://www.w3.org/1999/xlink" x="0px" y="0px"
	 viewBox="0 0 1080 1080" style="enable-background:new 0 0 1080 1080;" xml:space="preserve">
<style type="text/css">
	.st0{fill:#FFFFFF;}
	.st1{fill:url(#SVGID_1_);}
	.st2{fill:url(#SVGID_00000137134481111985571020000002957096575199409541_);}
	.st3{fill:none;stroke:#000000;stroke-width:12;stroke-miterlimit:10;}
	.st4{fill:none;stroke:#2F3C4E;stroke-width:12;stroke-miterlimit:10;}
	.st5{fill:url(#SVGID_00000004521847536032742260000013136998163055376265_);}
	.st6{fill:#4D7493;}
	.st7{fill:#F2DC42;}
	.st8{stroke:#000000;stroke-width:2;stroke-miterlimit:10;}
	.st9{fill:url(#SVGID_00000008866809166390888380000013726014183393629373_);}
	.st10{fill:url(#SVGID_00000168816881605486377710000009190118325823608729_);}
	.st11{fill:url(#SVGID_00000003082859879382990390000014226743224171138693_);}
	.st12{fill:url(#SVGID_00000046309973096574673180000004648228192194096282_);}
	.st13{fill:url(#SVGID_00000137816891852502042550000003622529099920014509_);}
	.st14{fill:url(#SVGID_00000147201362599709959740000008467373894772671673_);}
	.st15{fill:url(#SVGID_00000134228524641635701170000007398338540414022795_);}
	.st16{fill:url(#SVGID_00000150803991875644417300000013065459276105053576_);}
</style>
<path class="st4" d="M254.09,591.95c-20.41-63.46-22.51-131.75-3.59-195.67c27.32-92.34,91.35-159.68,191.28-203.46
	c118.9-52.09,284.23-8.43,367.1,94.23c54.79,67.88,79.03,143.27,78.32,229.01c-0.75,91.1-1.24,182.22,0.43,273.3
	c0.49,26.84-8.33,33.4-33.63,32.7c-50.65-1.38-101.39,0.41-152.09,0.9c-50.48-1.94-100.96-3.91-151.45-5.8
	c-54.8-2.04-105.3-17.46-152.55-45.6C323.42,727.2,277.91,666,254.09,591.95z"/>
<linearGradient id="SVGID_1_" gradientUnits="userSpaceOnUse" x1="192.4717" y1="583.8502" x2="842.6382" y2="583.8502">
	<stop  offset="0" style="stop-color:#FFFFFF"/>
	<stop  offset="6.965113e-03" style="stop-color:#F2DC42"/>
	<stop  offset="1" style="stop-color:#F7E884"/>
</linearGradient>
<path class="st1" d="M209.09,678.95c-20.41-63.46-22.51-131.75-3.59-195.67c27.32-92.34,91.35-159.68,191.28-203.46
	c118.9-52.09,284.23-8.43,367.1,94.23c54.79,67.88,79.03,143.27,78.32,229.01c-0.75,91.1-1.24,182.22,0.43,273.3
	c0.49,26.84-8.33,33.4-33.63,32.7c-50.65-1.38-101.39,0.41-152.09,0.9c-50.48-1.94-100.96-3.91-151.45-5.8
	c-54.8-2.04-105.3-17.46-152.55-45.6C278.42,814.2,232.91,753,209.09,678.95z"/>
</svg>
