<?xml version="1.0" encoding="utf-8"?>
<!-- Generator: Adobe Illustrator 26.0.1, SVG Export Plug-In . SVG Version: 6.00 Build 0)  -->
<svg version="1.1" id="Livello_1" xmlns="http://www.w3.org/2000/svg" xmlns:xlink="http://www.w3.org/1999/xlink" x="0px" y="0px"
	 viewBox="0 0 1080 1080" style="enable-background:new 0 0 1080 1080;" xml:space="preserve">
<style type="text/css">
	.st0{fill:#FFFFFF;}
	.st1{fill:url(#SVGID_1_);}
	.st2{fill:url(#SVGID_00000014611133983962818170000005540532603991120038_);}
	.st3{fill:none;stroke:#000000;stroke-width:12;stroke-miterlimit:10;}
	.st4{fill:none;stroke:#2F3C4E;stroke-width:12;stroke-miterlimit:10;}
	.st5{fill:url(#SVGID_00000091710007131557402260000015649648580063359893_);}
	.st6{fill:#4D7493;}
	.st7{fill:#F2DC42;}
	.st8{stroke:#000000;stroke-width:2;stroke-miterlimit:10;}
	.st9{fill:url(#SVGID_00000131348915554791592120000012701433890782336695_);}
	.st10{fill:url(#SVGID_00000102544388910131880870000009881719551436531339_);}
	.st11{fill:url(#SVGID_00000177466361994778272870000013612889949179011990_);}
	.st12{fill:url(#SVGID_00000042738203715831382870000017081100441701014965_);}
	.st13{fill:url(#SVGID_00000155841913062611180500000014646500735390982315_);}
	.st14{fill:url(#SVGID_00000060751736591601983980000013786487218724853153_);}
	.st15{fill:url(#SVGID_00000156579054543136140700000017222610258946297519_);}
	.st16{fill:url(#SVGID_00000163055120846408818660000016002680392541327507_);}
</style>
<path class="st4" d="M269.82,584.83c-17.66-54.91-19.48-114-3.11-169.31c23.64-79.9,79.05-138.17,165.5-176.05
	c102.88-45.08,245.94-7.3,317.64,81.53c47.41,58.74,68.38,123.97,67.77,198.15c-0.65,78.82-1.07,157.67,0.37,236.47
	c0.42,23.22-7.21,28.9-29.1,28.3c-43.83-1.2-87.73,0.36-131.6,0.78c-43.68-1.67-87.36-3.39-131.04-5.01
	c-47.41-1.77-91.11-15.11-132-39.46C329.8,701.86,290.43,648.91,269.82,584.83z"/>
<linearGradient id="SVGID_1_" gradientUnits="userSpaceOnUse" x1="216.495" y1="577.8278" x2="779.0629" y2="577.8278">
	<stop  offset="0" style="stop-color:#FFFFFF"/>
	<stop  offset="3.740906e-03" style="stop-color:#35AAFF"/>
	<stop  offset="1" style="stop-color:#7CC8FF"/>
</linearGradient>
<path class="st1" d="M230.88,660.11c-17.66-54.91-19.48-114-3.11-169.31c23.64-79.9,79.05-138.17,165.5-176.05
	c102.88-45.08,245.94-7.3,317.64,81.53c47.41,58.74,68.38,123.97,67.77,198.15c-0.65,78.82-1.07,157.67,0.37,236.47
	c0.42,23.22-7.21,28.9-29.1,28.3c-43.83-1.2-87.73,0.36-131.6,0.78c-43.68-1.67-87.36-3.39-131.04-5.01
	c-47.41-1.77-91.11-15.11-132-39.46C290.87,777.14,251.49,724.19,230.88,660.11z"/>
</svg>
