<?xml version="1.0" encoding="utf-8"?>
<!-- Generator: Adobe Illustrator 26.0.1, SVG Export Plug-In . SVG Version: 6.00 Build 0)  -->
<svg version="1.1" id="Livello_1" xmlns="http://www.w3.org/2000/svg" xmlns:xlink="http://www.w3.org/1999/xlink" x="0px" y="0px"
	 viewBox="0 0 1080 1080" style="enable-background:new 0 0 1080 1080;" xml:space="preserve">
<style type="text/css">
	.st0{fill:#FFFFFF;}
	.st1{fill:url(#SVGID_1_);}
	.st2{fill:url(#SVGID_00000081626549004325437950000015382379420505451697_);}
	.st3{fill:none;stroke:#000000;stroke-width:12;stroke-miterlimit:10;}
	.st4{fill:none;stroke:#2F3C4E;stroke-width:12;stroke-miterlimit:10;}
	.st5{fill:url(#SVGID_00000143577061094816233000000002495230524258712971_);}
	.st6{fill:#4D7493;}
	.st7{fill:#F2DC42;}
	.st8{stroke:#000000;stroke-width:2;stroke-miterlimit:10;}
	.st9{fill:url(#SVGID_00000066489604307514507570000017017495972945749650_);}
	.st10{fill:url(#SVGID_00000183956440830939591720000016054114061609833116_);}
	.st11{fill:url(#SVGID_00000176739986751883716910000014655161803677540226_);}
	.st12{fill:url(#SVGID_00000044164188738848684420000012571672436164560302_);}
	.st13{fill:url(#SVGID_00000018946857584421570190000012078325293431454358_);}
	.st14{fill:url(#SVGID_00000088123500140866898820000000104465996257414078_);}
	.st15{fill:url(#SVGID_00000173877813913328757950000015811453476403604144_);}
	.st16{fill:url(#SVGID_00000021817252054132392040000013917391572770245041_);}
</style>
<g id="swnne3.tif_00000084506334445557200700000012810172437997587584_">
	<g>
		<path d="M338.35,783c-11.56-10.15-13.6-21.98-6.3-35.5c0.9-1.66,1.44-3.51,2.3-5.2c15.57-30.47,20.69-57.5,3.03-92.91
			c-27.78-55.67-3.56-125.01,46.58-166.87c7.45-6.22,14.47-16.16,16.28-25.43C420.08,355.38,514.59,292.83,613.51,298
			c85.4,4.46,150.85,43.33,186.29,124.29c12.12,27.69,15.52,57.17,11.74,87.34c-1.56,12.47-5.99,23.1-20.59,22.1
			c-14.58-1-18.22-11.8-16.96-24.6c8.28-84.12-51.21-148.4-126.63-167.09c-76.13-18.87-159.23,16.27-196,84.5
			c-34.83,64.64-8.44,150.84,58.77,190.95c45.14,26.94,93.67,35.05,143.9,19.16c22.83-7.22,42.49-7.43,63.17,4.24
			c11.41,6.44,24,10.8,40.76,18.17c-7.09-18.42-12.39-32.76-18.11-46.92c-5.17-12.8-7.93-25.78,8.03-31.87
			c14.54-5.55,21.9,4.63,26.82,16.92c11.27,28.15,23.59,55.92,33.52,84.53c2.8,8.06,1.89,21.16-3.11,26.97
			c-3.85,4.47-17.8,3.8-25.47,0.81c-28.24-10.98-55.68-23.98-83.52-36.02c-15.84-6.85-47.5,1.67-57.84,15.25
			c-45.09,59.21-116.63,82.94-189.18,64.02c-9.39-2.45-21.27-1.17-30.42,2.41c-22.21,8.68-43.49,19.73-65.15,29.83
			C348.48,783,343.42,783,338.35,783z M399.86,523.57c-35.18,28.11-47.25,83.85-21.8,125.49c15.54,25.43,20.76,47.14,6.32,73
			c-0.26,0.46,1.14,1.85,1.9,3.04c13.95-5.85,27.58-15.2,41.95-16.54c14.26-1.33,29.14,6.38,43.98,8.43
			c44.31,6.12,84.32-2.96,120.44-36.07C493.16,668.33,427.56,618.73,399.86,523.57z"/>
	</g>
</g>
</svg>
