<?xml version="1.0" encoding="utf-8"?>
<!-- Generator: Adobe Illustrator 26.0.1, SVG Export Plug-In . SVG Version: 6.00 Build 0)  -->
<svg version="1.1" id="Livello_1" xmlns="http://www.w3.org/2000/svg" xmlns:xlink="http://www.w3.org/1999/xlink" x="0px" y="0px"
	 viewBox="0 0 1080 1080" style="enable-background:new 0 0 1080 1080;" xml:space="preserve">
<style type="text/css">
	.st0{fill:#FFFFFF;}
	.st1{fill:url(#SVGID_1_);}
	.st2{fill:url(#SVGID_00000100347173727609361260000002392509592671730838_);}
	.st3{fill:none;stroke:#000000;stroke-width:12;stroke-miterlimit:10;}
	.st4{fill:none;stroke:#2F3C4E;stroke-width:12;stroke-miterlimit:10;}
	.st5{fill:url(#SVGID_00000096061706342295533560000011434476819257229962_);}
	.st6{fill:#4D7493;}
	.st7{fill:#F2DC42;}
	.st8{stroke:#000000;stroke-width:2;stroke-miterlimit:10;}
	.st9{fill:url(#SVGID_00000024695449411451625350000012686916058081200570_);}
	.st10{fill:url(#SVGID_00000024718493076616844490000001269665346339635853_);}
	.st11{fill:url(#SVGID_00000150067919825608869310000005543870854079534475_);}
	.st12{fill:url(#SVGID_00000089543632748716112910000014208549527785161090_);}
	.st13{fill:url(#SVGID_00000071534868847927021380000010097435894441703827_);}
	.st14{fill:url(#SVGID_00000036253225923961663790000012577397980362505917_);}
	.st15{fill:url(#SVGID_00000059279380230541007490000000869415936314626745_);}
	.st16{fill:url(#SVGID_00000016052486748362936670000003251448459687262363_);}
</style>
<g>
	<path class="st0" d="M301,423.85c-40.62,0.17-81.36,2.21-121.83-0.15c-26.23-1.53-32.75,9.16-32.59,32.25
		c0.63,88.36-1.89,176.8,1.27,265.05c3.44,95.88,48.8,171.41,129.14,222.68c186.78,119.21,428.13-10.02,434.56-232.95
		c44.63-0.43,89.28-2.01,133.87-0.79c22.27,0.61,30.03-5.16,29.6-28.78c-1.46-80.16-1.04-160.36-0.38-240.54
		c0.62-75.46-20.71-141.81-68.93-201.56c-72.93-90.36-218.45-128.78-323.1-82.93C365.35,207.5,304.25,295.74,301,423.85z"/>
	<linearGradient id="SVGID_1_" gradientUnits="userSpaceOnUse" x1="301.0028" y1="423.7205" x2="875.0346" y2="423.7205">
		<stop  offset="0" style="stop-color:#FFFFFF"/>
		<stop  offset="6.965113e-03" style="stop-color:#4D7493"/>
		<stop  offset="1" style="stop-color:#8BA5B9"/>
	</linearGradient>
	<path class="st1" d="M301,423.85c3.24-128.11,64.35-216.35,181.61-267.73c104.65-45.85,250.17-7.42,323.1,82.93
		c48.22,59.75,69.56,126.1,68.93,201.56c-0.66,80.18-1.09,160.38,0.38,240.54c0.43,23.62-7.33,29.39-29.6,28.78
		c-44.58-1.22-89.24,0.36-133.87,0.79c-44.43-1.7-88.86-3.45-133.3-5.1c-48.23-1.8-92.68-15.37-134.27-40.14
		C352.18,610.82,310.38,527.05,301,423.85z"/>
	
		<linearGradient id="SVGID_00000030454536836821883200000012742926717987912101_" gradientUnits="userSpaceOnUse" x1="146.2194" y1="706.2774" x2="711.5555" y2="706.2774">
		<stop  offset="0" style="stop-color:#FFFFFF"/>
		<stop  offset="6.965113e-03" style="stop-color:#F2DC42"/>
		<stop  offset="1" style="stop-color:#F7E884"/>
	</linearGradient>
	<path style="fill:url(#SVGID_00000030454536836821883200000012742926717987912101_);" d="M301,423.85
		c9.38,103.2,51.17,186.97,142.99,241.65c41.59,24.77,86.04,38.34,134.27,40.14c44.43,1.66,88.86,3.4,133.3,5.1
		c-6.43,222.93-247.79,352.16-434.56,232.95C196.66,892.41,151.3,816.88,147.86,721c-3.17-88.25-0.64-176.7-1.27-265.05
		c-0.16-23.09,6.36-33.78,32.59-32.25C219.65,426.06,260.38,424.02,301,423.85z"/>
</g>
<g>
	<path class="st3" d="M359.5,377.35c-40.62,0.17-81.36,2.21-121.83-0.15c-26.23-1.53-32.75,9.16-32.59,32.25
		c0.63,88.36-1.89,176.8,1.27,265.05c3.44,95.88,48.8,171.41,129.14,222.68c186.78,119.21,428.13-10.02,434.56-232.95
		c44.63-0.43,89.28-2.01,133.87-0.79c22.27,0.61,30.03-5.16,29.6-28.78c-1.46-80.16-1.04-160.36-0.38-240.54
		c0.62-75.46-20.71-141.81-68.93-201.56c-72.93-90.36-218.45-128.78-323.1-82.93C423.85,161,362.75,249.24,359.5,377.35z"/>
	<path class="st3" d="M359.5,377.35c3.24-128.11,64.35-216.35,181.61-267.73c104.65-45.85,250.17-7.42,323.1,82.93
		c48.22,59.75,69.56,126.1,68.93,201.56c-0.66,80.18-1.09,160.38,0.38,240.54c0.43,23.62-7.33,29.39-29.6,28.78
		c-44.58-1.22-89.24,0.36-133.87,0.79c-44.43-1.7-88.86-3.45-133.3-5.1c-48.23-1.8-92.68-15.37-134.27-40.14
		C410.68,564.32,368.88,480.55,359.5,377.35z"/>
	<path class="st3" d="M359.5,377.35c9.38,103.2,51.17,186.97,142.99,241.65c41.59,24.77,86.04,38.34,134.27,40.14
		c44.43,1.66,88.86,3.4,133.3,5.1c-6.43,222.93-247.79,352.16-434.56,232.95c-80.33-51.27-125.7-126.8-129.14-222.68
		c-3.17-88.25-0.64-176.7-1.27-265.05c-0.16-23.09,6.36-33.78,32.59-32.25C278.15,379.56,318.88,377.52,359.5,377.35z"/>
</g>
</svg>
