<?xml version="1.0" encoding="utf-8"?>
<!-- Generator: Adobe Illustrator 26.0.1, SVG Export Plug-In . SVG Version: 6.00 Build 0)  -->
<svg version="1.1" id="Livello_1" xmlns="http://www.w3.org/2000/svg" xmlns:xlink="http://www.w3.org/1999/xlink" x="0px" y="0px"
	 viewBox="0 0 1080 1080" style="enable-background:new 0 0 1080 1080;" xml:space="preserve">
<style type="text/css">
	.st0{fill:#FFFFFF;}
	.st1{fill:url(#SVGID_1_);}
	.st2{fill:url(#SVGID_00000156552953808854511190000009944215999900980875_);}
	.st3{fill:none;stroke:#000000;stroke-width:12;stroke-miterlimit:10;}
	.st4{fill:none;stroke:#2F3C4E;stroke-width:12;stroke-miterlimit:10;}
	.st5{fill:url(#SVGID_00000031908229936834944760000016887362152876432565_);}
	.st6{fill:#4D7493;}
	.st7{fill:#F2DC42;}
	.st8{stroke:#000000;stroke-width:2;stroke-miterlimit:10;}
	.st9{fill:url(#SVGID_00000075841261050877407610000006020992735236789896_);}
	.st10{fill:url(#SVGID_00000134215431832084001440000003918687502704639367_);}
	.st11{fill:url(#SVGID_00000099654389193185950700000014515389369304309686_);}
	.st12{fill:url(#SVGID_00000049943431684431747650000001901131092430281602_);}
	.st13{fill:url(#SVGID_00000153664453371885938690000007242234078088685480_);}
	.st14{fill:url(#SVGID_00000047783019810317211840000007987584667474867638_);}
	.st15{fill:url(#SVGID_00000050645588392390747890000011858330683075565207_);}
	.st16{fill:url(#SVGID_00000078736263668993611070000006435914242721110963_);}
</style>
<g>
	<path d="M641.42,748.5c-68.09,0-135.55,0-203.44,0c0-118.98,0-237.56,0-357.07c7.98,0,16.03,0,24.7,0
		c0.17-3.63,0.42-6.37,0.42-9.11c0.03-22.43-0.06-44.86,0.05-67.29c0.07-15.51,10.68-26.11,26.22-26.16
		c33.5-0.09,67.01-0.08,100.51-0.01c16.05,0.04,26.5,10.56,26.56,26.69c0.08,22.15,0.02,44.29,0.02,66.44c0,2.76,0,5.52,0,8.9
		c8.66,0,16.52,0,24.96,0C641.42,510.31,641.42,629.08,641.42,748.5z M514.59,390.63c17.32,0,33.66,0,50.24,0c0-17,0-33.54,0-50.09
		c-17.07,0-33.62,0-50.24,0C514.59,357.48,514.59,373.82,514.59,390.63z"/>
	<path d="M385.89,748.85c-18.24,0-35.82,0.41-53.36-0.14c-12.46-0.39-22.51-11.56-22.71-24.35c-0.24-15.32-0.07-30.64-0.07-45.96
		c0-85.4,0.4-170.81-0.31-256.21c-0.16-18.92,11.08-32.88,31.84-31.31c14.11,1.07,28.36,0.26,42.54,0.32c0.52,0,1.04,0.31,2.07,0.64
		C385.89,510.41,385.89,629.13,385.89,748.85z"/>
	<path d="M693.7,391.13c18.2,0,35.76-0.37,53.31,0.13c11.76,0.34,21.75,10.85,22.74,22.61c0.19,2.26,0.08,4.54,0.08,6.81
		c0,99.59,0.01,199.17,0,298.76c0,19.95-9.62,29.45-29.77,29.46c-15.27,0.01-30.55,0-46.35,0C693.7,629.6,693.7,510.88,693.7,391.13
		z"/>
</g>
</svg>
