<?xml version="1.0" encoding="utf-8"?>
<!-- Generator: Adobe Illustrator 26.0.1, SVG Export Plug-In . SVG Version: 6.00 Build 0)  -->
<svg version="1.1" id="Livello_1" xmlns="http://www.w3.org/2000/svg" xmlns:xlink="http://www.w3.org/1999/xlink" x="0px" y="0px"
	 viewBox="0 0 1080 1080" style="enable-background:new 0 0 1080 1080;" xml:space="preserve">
<style type="text/css">
	.st0{fill:#FFFFFF;}
	.st1{fill:url(#SVGID_1_);}
	.st2{fill:url(#SVGID_00000114048435782979842940000006687212515885028760_);}
	.st3{fill:none;stroke:#000000;stroke-width:12;stroke-miterlimit:10;}
	.st4{fill:none;stroke:#2F3C4E;stroke-width:12;stroke-miterlimit:10;}
	.st5{fill:url(#SVGID_00000029028109268715918990000012032435249941727889_);}
	.st6{fill:#4D7493;}
	.st7{fill:#F2DC42;}
	.st8{stroke:#000000;stroke-width:2;stroke-miterlimit:10;}
	.st9{fill:url(#SVGID_00000008147451420258046250000006105728797870734996_);}
	.st10{fill:url(#SVGID_00000035524751013715239110000011620686029402371243_);}
	.st11{fill:url(#SVGID_00000114057356730997056390000011894003021537264028_);}
	.st12{fill:url(#SVGID_00000052804300064008908570000007432023911684379816_);}
	.st13{fill:url(#SVGID_00000160889917799784474990000017807604467530984618_);}
	.st14{fill:url(#SVGID_00000074402318928646163560000018326881325983705530_);}
	.st15{fill:url(#SVGID_00000134958034038752706480000009647194226527378108_);}
	.st16{fill:url(#SVGID_00000133507864525106141600000016794534603903294852_);}
</style>
<path class="st4" d="M261.82,584.83c-17.66-54.91-19.48-114-3.11-169.31c23.64-79.9,79.05-138.17,165.5-176.05
	c102.88-45.08,245.94-7.3,317.64,81.53c47.41,58.74,68.38,123.97,67.77,198.15c-0.65,78.82-1.07,157.67,0.37,236.47
	c0.42,23.22-7.21,28.9-29.1,28.3c-43.83-1.2-87.73,0.36-131.6,0.78c-43.68-1.67-87.36-3.39-131.04-5.01
	c-47.41-1.77-91.11-15.11-132-39.46C321.8,701.86,282.43,648.91,261.82,584.83z"/>
<linearGradient id="SVGID_1_" gradientUnits="userSpaceOnUse" x1="208.495" y1="577.8278" x2="771.0629" y2="577.8278">
	<stop  offset="0" style="stop-color:#FFFFFF"/>
	<stop  offset="3.740906e-03" style="stop-color:#6875E9"/>
	<stop  offset="1" style="stop-color:#9DA5F1"/>
</linearGradient>
<path class="st1" d="M222.88,660.11c-17.66-54.91-19.48-114-3.11-169.31c23.64-79.9,79.05-138.17,165.5-176.05
	c102.88-45.08,245.94-7.3,317.64,81.53c47.41,58.74,68.38,123.97,67.77,198.15c-0.65,78.82-1.07,157.67,0.37,236.47
	c0.42,23.22-7.21,28.9-29.1,28.3c-43.83-1.2-87.73,0.36-131.6,0.78c-43.68-1.67-87.36-3.39-131.04-5.01
	c-47.41-1.77-91.11-15.11-132-39.46C282.87,777.14,243.49,724.19,222.88,660.11z"/>
</svg>
