<?xml version="1.0" encoding="utf-8"?>
<!-- Generator: Adobe Illustrator 26.0.1, SVG Export Plug-In . SVG Version: 6.00 Build 0)  -->
<svg version="1.1" id="Livello_1" xmlns="http://www.w3.org/2000/svg" xmlns:xlink="http://www.w3.org/1999/xlink" x="0px" y="0px"
	 viewBox="0 0 1080 1080" style="enable-background:new 0 0 1080 1080;" xml:space="preserve">
<style type="text/css">
	.st0{fill:#FFFFFF;}
	.st1{fill:url(#SVGID_1_);}
	.st2{fill:url(#SVGID_00000025443239382818352110000000949713684575953541_);}
	.st3{fill:none;stroke:#000000;stroke-width:12;stroke-miterlimit:10;}
	.st4{fill:none;stroke:#2F3C4E;stroke-width:12;stroke-miterlimit:10;}
	.st5{fill:url(#SVGID_00000057124834968898374360000003800574506486614952_);}
	.st6{fill:#4D7493;}
	.st7{fill:#F2DC42;}
	.st8{stroke:#000000;stroke-width:2;stroke-miterlimit:10;}
	.st9{fill:url(#SVGID_00000098923199453684838830000009800116031431829127_);}
	.st10{fill:url(#SVGID_00000025443159590769709220000002141070350918735268_);}
	.st11{fill:url(#SVGID_00000008848577274772591460000004736240912471188404_);}
	.st12{fill:url(#SVGID_00000076566111516990104110000007176977847547102883_);}
	.st13{fill:url(#SVGID_00000130626418226576456160000018074386964148409495_);}
	.st14{fill:url(#SVGID_00000174600092172590154370000003045931541108880270_);}
	.st15{fill:url(#SVGID_00000013190287436647870470000007574864827171808919_);}
	.st16{fill:url(#SVGID_00000181801882080071005970000002775356302853909671_);}
</style>
<path class="st4" d="M266.82,572.83c-17.66-54.91-19.48-114-3.11-169.31c23.64-79.9,79.05-138.17,165.5-176.05
	c102.88-45.08,245.94-7.3,317.64,81.53c47.41,58.74,68.38,123.97,67.77,198.15c-0.65,78.82-1.07,157.67,0.37,236.47
	c0.42,23.22-7.21,28.9-29.1,28.3c-43.83-1.2-87.73,0.36-131.6,0.78c-43.68-1.67-87.36-3.39-131.04-5.01
	c-47.41-1.77-91.11-15.11-132-39.46C326.8,689.86,287.43,636.91,266.82,572.83z"/>
<linearGradient id="SVGID_1_" gradientUnits="userSpaceOnUse" x1="213.495" y1="565.8278" x2="776.0629" y2="565.8278">
	<stop  offset="0" style="stop-color:#FFFFFF"/>
	<stop  offset="3.740906e-03" style="stop-color:#F8734D"/>
	<stop  offset="1" style="stop-color:#FAA48B"/>
</linearGradient>
<path class="st1" d="M227.88,648.11c-17.66-54.91-19.48-114-3.11-169.31c23.64-79.9,79.05-138.17,165.5-176.05
	c102.88-45.08,245.94-7.3,317.64,81.53c47.41,58.74,68.38,123.97,67.77,198.15c-0.65,78.82-1.07,157.67,0.37,236.47
	c0.42,23.22-7.21,28.9-29.1,28.3c-43.83-1.2-87.73,0.36-131.6,0.78c-43.68-1.67-87.36-3.39-131.04-5.01
	c-47.41-1.77-91.11-15.11-132-39.46C287.87,765.14,248.49,712.19,227.88,648.11z"/>
</svg>
