<?xml version="1.0" encoding="utf-8"?>
<!-- Generator: Adobe Illustrator 26.0.1, SVG Export Plug-In . SVG Version: 6.00 Build 0)  -->
<svg version="1.1" id="Livello_1" xmlns="http://www.w3.org/2000/svg" xmlns:xlink="http://www.w3.org/1999/xlink" x="0px" y="0px"
	 viewBox="0 0 1080 1080" style="enable-background:new 0 0 1080 1080;" xml:space="preserve">
<style type="text/css">
	.st0{fill:#FFFFFF;}
	.st1{fill:url(#SVGID_1_);}
	.st2{fill:url(#SVGID_00000112632813708754496850000008266356216283394474_);}
	.st3{fill:none;stroke:#000000;stroke-width:12;stroke-miterlimit:10;}
	.st4{fill:none;stroke:#2F3C4E;stroke-width:12;stroke-miterlimit:10;}
	.st5{fill:url(#SVGID_00000049208921225224872840000003278445423658083003_);}
	.st6{fill:#4D7493;}
	.st7{fill:#F2DC42;}
	.st8{stroke:#000000;stroke-width:2;stroke-miterlimit:10;}
	.st9{fill:url(#SVGID_00000023968883837792443660000008399401236066663332_);}
	.st10{fill:url(#SVGID_00000055675083496722320550000016450295664249367482_);}
	.st11{fill:url(#SVGID_00000126316014585180446550000002823439785434178205_);}
	.st12{fill:url(#SVGID_00000088091860933365213850000010573742908149013433_);}
	.st13{fill:url(#SVGID_00000127737145361945639720000011140772547569403272_);}
	.st14{fill:url(#SVGID_00000102510846714304664510000009335160140307960765_);}
	.st15{fill:url(#SVGID_00000099631527224605801160000013424195121273753261_);}
	.st16{fill:url(#SVGID_00000119826256117868173140000008526255758153345187_);}
</style>
<path class="st4" d="M310.82,584.83c-17.66-54.91-19.48-114-3.11-169.31c23.64-79.9,79.05-138.17,165.5-176.05
	c102.88-45.08,245.94-7.3,317.64,81.53c47.41,58.74,68.38,123.97,67.77,198.15c-0.65,78.82-1.07,157.67,0.37,236.47
	c0.42,23.22-7.21,28.9-29.1,28.3c-43.83-1.2-87.73,0.36-131.6,0.78c-43.68-1.67-87.36-3.39-131.04-5.01
	c-47.41-1.77-91.11-15.11-132-39.46C370.8,701.86,331.43,648.91,310.82,584.83z"/>
<linearGradient id="SVGID_1_" gradientUnits="userSpaceOnUse" x1="257.495" y1="577.8278" x2="820.0629" y2="577.8278">
	<stop  offset="0" style="stop-color:#FFFFFF"/>
	<stop  offset="6.965113e-03" style="stop-color:#42D7C7"/>
	<stop  offset="1" style="stop-color:#84E5DB"/>
</linearGradient>
<path class="st1" d="M271.88,660.11c-17.66-54.91-19.48-114-3.11-169.31c23.64-79.9,79.05-138.17,165.5-176.05
	c102.88-45.08,245.94-7.3,317.64,81.53c47.41,58.74,68.38,123.97,67.77,198.15c-0.65,78.82-1.07,157.67,0.37,236.47
	c0.42,23.22-7.21,28.9-29.1,28.3c-43.83-1.2-87.73,0.36-131.6,0.78c-43.68-1.67-87.36-3.39-131.04-5.01
	c-47.41-1.77-91.11-15.11-132-39.46C331.87,777.14,292.49,724.19,271.88,660.11z"/>
</svg>
