<?xml version="1.0" encoding="utf-8"?>
<!-- Generator: Adobe Illustrator 26.0.1, SVG Export Plug-In . SVG Version: 6.00 Build 0)  -->
<svg version="1.1" id="Livello_1" xmlns="http://www.w3.org/2000/svg" xmlns:xlink="http://www.w3.org/1999/xlink" x="0px" y="0px"
	 viewBox="0 0 1080 1080" style="enable-background:new 0 0 1080 1080;" xml:space="preserve">
<style type="text/css">
	.st0{fill:#FFFFFF;}
	.st1{fill:url(#SVGID_1_);}
	.st2{fill:url(#SVGID_00000115509928430260322900000013979612498830245532_);}
	.st3{fill:none;stroke:#000000;stroke-width:12;stroke-miterlimit:10;}
	.st4{fill:none;stroke:#2F3C4E;stroke-width:12;stroke-miterlimit:10;}
	.st5{fill:url(#SVGID_00000044867749073229077840000000693267416777565364_);}
	.st6{fill:#4D7493;}
	.st7{fill:#F2DC42;}
	.st8{stroke:#000000;stroke-width:2;stroke-miterlimit:10;}
	.st9{fill:url(#SVGID_00000113351738889105813590000006379427972731645312_);}
	.st10{fill:url(#SVGID_00000033354766452923257040000012202180662742277249_);}
	.st11{fill:url(#SVGID_00000010283902939690587480000014432393611058776741_);}
	.st12{fill:url(#SVGID_00000054958859680325681120000010264669890061362827_);}
	.st13{fill:url(#SVGID_00000154389427383187023660000008160418414155876485_);}
	.st14{fill:url(#SVGID_00000005228968982962812690000016046856059048488635_);}
	.st15{fill:url(#SVGID_00000018205793539704576930000011573327696553475228_);}
	.st16{fill:url(#SVGID_00000176028682902023576830000017215383482624640432_);}
</style>
<path class="st3" d="M847.42,648.5H306.38c-76.77,0-139.58-62.81-139.58-139.58v0c0-76.77,62.81-139.58,139.58-139.58h541.04
	c76.77,0,139.58,62.81,139.58,139.58v0C987,585.69,924.19,648.5,847.42,648.5z"/>
<path class="st6" d="M773.84,711.32H232.8c-76.77,0-139.58-62.81-139.58-139.58v0c0-76.77,62.81-139.58,139.58-139.58h541.04
	c76.77,0,139.58,62.81,139.58,139.58v0C913.42,648.51,850.61,711.32,773.84,711.32z"/>
</svg>
