<?xml version="1.0" encoding="utf-8"?>
<!-- Generator: Adobe Illustrator 26.0.1, SVG Export Plug-In . SVG Version: 6.00 Build 0)  -->
<svg version="1.1" id="Livello_1" xmlns="http://www.w3.org/2000/svg" xmlns:xlink="http://www.w3.org/1999/xlink" x="0px" y="0px"
	 viewBox="0 0 1080 1080" style="enable-background:new 0 0 1080 1080;" xml:space="preserve">
<style type="text/css">
	.st0{fill:#FFFFFF;}
	.st1{fill:url(#SVGID_1_);}
	.st2{fill:url(#SVGID_00000043440131592189938730000008244044194483158691_);}
	.st3{fill:none;stroke:#000000;stroke-width:12;stroke-miterlimit:10;}
	.st4{fill:none;stroke:#2F3C4E;stroke-width:12;stroke-miterlimit:10;}
	.st5{fill:url(#SVGID_00000165915707488886796890000002733836964833248935_);}
	.st6{fill:#4D7493;}
	.st7{fill:#F2DC42;}
	.st8{stroke:#000000;stroke-width:2;stroke-miterlimit:10;}
	.st9{fill:url(#SVGID_00000089551504362199835080000009006255300682347676_);}
	.st10{fill:url(#SVGID_00000030448451990499852490000010560227067913637010_);}
	.st11{fill:url(#SVGID_00000067956058969552405020000011987599114660501141_);}
	.st12{fill:url(#SVGID_00000114033245321334218810000001407565694448070533_);}
	.st13{fill:url(#SVGID_00000148633206584469819420000014169647032802926470_);}
	.st14{fill:url(#SVGID_00000107578382224172148960000004156056302157350320_);}
	.st15{fill:url(#SVGID_00000158030081252534833270000001193199540952641439_);}
	.st16{fill:url(#SVGID_00000002349102752856327530000001022831771577639095_);}
</style>
<g id="iJyiBq.tif_00000067916711816463410150000006793802851594231212_">
	<g>
		<path class="st8" d="M507.88,313.77c19.52,0,39.05,0,58.57,0c3.37,1.15,6.65,2.79,10.12,3.39
			c115.26,20.05,196.78,119.08,194.8,236.77c-1.94,115.86-88.8,210.57-208.26,227.09c-109.08,15.08-218.46-57.69-250.66-166.91
			c-3.58-12.14-6.41-24.5-9.58-36.76c0-19.52,0-39.05,0-58.57c1.15-3.38,2.7-6.68,3.4-10.15c19.09-94.62,75-156.27,166.55-185.85
			C484.28,319.08,496.18,316.74,507.88,313.77z M677.58,697.36c76.44-64.21,95.65-201,8.83-292.06
			c-83.78-87.88-223.75-84.86-305.01,7.29c-80.09,90.82-58.51,224.3,15.55,284.57c13.95-42.62,41.79-73.13,82.13-92.54
			C426,549.76,421,491.6,464.45,447.33c39.15-39.89,102.88-40.84,143.26-2.13c45.44,43.55,41.4,100.13-12.2,159.73
			C636,623.96,663.27,654.93,677.58,697.36z M653.31,717.78c-11.94-55.63-55.11-94.1-107.65-96.64
			c-56.27-2.72-104.89,29.7-121.21,80.97c-2.71,8.52-5.8,15.79,5.43,23.02C494.04,766.43,591.63,764.02,653.31,717.78z
			 M536.3,592.68c41.69,0.35,74.54-31.75,74.9-73.18c0.36-41.71-31.7-74.52-73.2-74.9c-41.7-0.38-74.53,31.71-74.89,73.2
			C462.76,559.46,494.88,592.34,536.3,592.68z"/>
	</g>
</g>
</svg>
