<?xml version="1.0" encoding="utf-8"?>
<!-- Generator: Adobe Illustrator 26.0.1, SVG Export Plug-In . SVG Version: 6.00 Build 0)  -->
<svg version="1.1" id="Livello_1" xmlns="http://www.w3.org/2000/svg" xmlns:xlink="http://www.w3.org/1999/xlink" x="0px" y="0px"
	 viewBox="0 0 1080 1080" style="enable-background:new 0 0 1080 1080;" xml:space="preserve">
<style type="text/css">
	.st0{fill:#FFFFFF;}
	.st1{fill:url(#SVGID_1_);}
	.st2{fill:url(#SVGID_00000038414082617470766550000008790053958808814231_);}
	.st3{fill:none;stroke:#000000;stroke-width:12;stroke-miterlimit:10;}
	.st4{fill:none;stroke:#2F3C4E;stroke-width:12;stroke-miterlimit:10;}
	.st5{fill:url(#SVGID_00000005963412591726287770000009703335779966421661_);}
	.st6{fill:#4D7493;}
	.st7{fill:#F2DC42;}
	.st8{stroke:#000000;stroke-width:2;stroke-miterlimit:10;}
	.st9{fill:url(#SVGID_00000081616578500607896170000001687115468601455787_);}
	.st10{fill:url(#SVGID_00000034070098412218345750000006511796121867830962_);}
	.st11{fill:url(#SVGID_00000049926668357443492490000005654018897474579093_);}
	.st12{fill:url(#SVGID_00000145747137062663837120000008261278677236317596_);}
	.st13{fill:url(#SVGID_00000162352213406411677850000010015387835282084521_);}
	.st14{fill:url(#SVGID_00000180338797491404254760000016735442155934869692_);}
	.st15{fill:url(#SVGID_00000181062642011230943980000014069929267687280817_);}
	.st16{fill:url(#SVGID_00000173872264525263542520000004497116117559099054_);}
</style>
<g id="ZDcPzv.tif_00000043442522919131708380000004631485593798200719_">
	<g>
		<path d="M556.5,643.47c-26.62,0-50.98,0-78.11,0c0,32.97,0.01,65.52-0.01,98.07c-0.01,7.58,0.32,15.19-0.33,22.72
			c-1,11.69-7.28,18.59-19.57,18.61c-44.83,0.06-89.67,0.09-134.5,0.01c-13.18-0.02-19.6-6.97-19.6-20.1
			c0.01-86.51-0.25-173.02,0.45-259.52c0.06-7.05,5.05-15.61,10.35-20.83c59.39-58.48,119.46-116.26,178.92-174.68
			c12.63-12.4,22.8-12.05,35.56-0.22c62.51,57.95,125.77,115.1,187.88,173.48c7.16,6.73,12.34,19.27,12.46,29.19
			c0.98,82.08,0.63,164.17,0.51,246.26c-0.03,22.79-3.74,26.39-26.54,26.46c-40.41,0.12-80.83,0.14-121.24-0.01
			c-20.62-0.08-25.97-5.12-26.14-25.55C556.28,720.11,556.5,682.88,556.5,643.47z M696.91,748.19c0-79.19,0.26-156.27-0.5-233.34
			c-0.06-6.16-6.03-13.44-11.13-18.18c-51.42-47.72-103.23-95.02-154.94-142.41c-5.89-5.39-11.89-10.66-18.39-16.47
			c-54.87,53.21-108.71,104.77-161.49,157.4c-6.97,6.95-11.86,19.3-12.01,29.24c-1.03,68.24-0.57,136.51-0.49,204.76
			c0.01,6.09,0.67,12.19,1.04,18.43c35.74,0,70.05,0,105.75,0c0-39.24,0.23-77.06-0.12-114.88c-0.13-14.07,4.05-23.91,19.76-24.02
			c35.39-0.25,70.79-0.25,106.18,0.01c12.95,0.09,19.69,7.05,19.51,20.32c-0.11,8.21,0.04,16.43,0.04,24.65
			c0.01,31.36,0,62.73,0,94.48C626.74,748.19,660.64,748.19,696.91,748.19z"/>
	</g>
</g>
</svg>
