<?xml version="1.0" encoding="utf-8"?>
<!-- Generator: Adobe Illustrator 26.0.1, SVG Export Plug-In . SVG Version: 6.00 Build 0)  -->
<svg version="1.1" id="Livello_1" xmlns="http://www.w3.org/2000/svg" xmlns:xlink="http://www.w3.org/1999/xlink" x="0px" y="0px"
	 viewBox="0 0 1080 1080" style="enable-background:new 0 0 1080 1080;" xml:space="preserve">
<style type="text/css">
	.st0{fill:#FFFFFF;}
	.st1{fill:url(#SVGID_1_);}
	.st2{fill:url(#SVGID_00000098910240500330961270000001348650397841261703_);}
	.st3{fill:none;stroke:#000000;stroke-width:12;stroke-miterlimit:10;}
	.st4{fill:none;stroke:#2F3C4E;stroke-width:12;stroke-miterlimit:10;}
	.st5{fill:url(#SVGID_00000123422379358426039660000014032575828179937437_);}
	.st6{fill:#4D7493;}
	.st7{fill:#F2DC42;}
	.st8{stroke:#000000;stroke-width:2;stroke-miterlimit:10;}
	.st9{fill:url(#SVGID_00000009584906964780754600000000809219480476982417_);}
	.st10{fill:url(#SVGID_00000013158374464039725680000013604444402952661141_);}
	.st11{fill:url(#SVGID_00000081638154463511915350000016144329209556293823_);}
	.st12{fill:url(#SVGID_00000055704958488404677270000005249927130942255499_);}
	.st13{fill:url(#SVGID_00000076587334515084910630000007756486280568532368_);}
	.st14{fill:url(#SVGID_00000054945692160762603150000002239491840048521368_);}
	.st15{fill:url(#SVGID_00000010275275669253052150000014604211660104659104_);}
	.st16{fill:url(#SVGID_00000013190277040724143060000000894139225090591875_);}
</style>
<path class="st4" d="M266.82,584.83c-17.66-54.91-19.48-114-3.11-169.31c23.64-79.9,79.05-138.17,165.5-176.05
	c102.88-45.08,245.94-7.3,317.64,81.53c47.41,58.74,68.38,123.97,67.77,198.15c-0.65,78.82-1.07,157.67,0.37,236.47
	c0.42,23.22-7.21,28.9-29.1,28.3c-43.83-1.2-87.73,0.36-131.6,0.78c-43.68-1.67-87.36-3.39-131.04-5.01
	c-47.41-1.77-91.11-15.11-132-39.46C326.8,701.86,287.43,648.91,266.82,584.83z"/>
<linearGradient id="SVGID_1_" gradientUnits="userSpaceOnUse" x1="213.495" y1="577.8278" x2="776.0629" y2="577.8278">
	<stop  offset="0" style="stop-color:#FFFFFF"/>
	<stop  offset="6.965113e-03" style="stop-color:#41D685"/>
	<stop  offset="1" style="stop-color:#83E4B0"/>
</linearGradient>
<path class="st1" d="M227.88,660.11c-17.66-54.91-19.48-114-3.11-169.31c23.64-79.9,79.05-138.17,165.5-176.05
	c102.88-45.08,245.94-7.3,317.64,81.53c47.41,58.74,68.38,123.97,67.77,198.15c-0.65,78.82-1.07,157.67,0.37,236.47
	c0.42,23.22-7.21,28.9-29.1,28.3c-43.83-1.2-87.73,0.36-131.6,0.78c-43.68-1.67-87.36-3.39-131.04-5.01
	c-47.41-1.77-91.11-15.11-132-39.46C287.87,777.14,248.49,724.19,227.88,660.11z"/>
</svg>
