<?xml version="1.0" encoding="utf-8"?>
<!-- Generator: Adobe Illustrator 26.0.1, SVG Export Plug-In . SVG Version: 6.00 Build 0)  -->
<svg version="1.1" id="Livello_1" xmlns="http://www.w3.org/2000/svg" xmlns:xlink="http://www.w3.org/1999/xlink" x="0px" y="0px"
	 viewBox="0 0 1080 1080" style="enable-background:new 0 0 1080 1080;" xml:space="preserve">
<style type="text/css">
	.st0{fill:#FFFFFF;}
	.st1{fill:url(#SVGID_1_);}
	.st2{fill:url(#SVGID_00000114758461501422944520000016352827642629160886_);}
	.st3{fill:none;stroke:#000000;stroke-width:12;stroke-miterlimit:10;}
	.st4{fill:none;stroke:#2F3C4E;stroke-width:12;stroke-miterlimit:10;}
	.st5{fill:url(#SVGID_00000086660422992886542620000014338914451908903083_);}
	.st6{fill:#4D7493;}
	.st7{fill:#F2DC42;}
	.st8{stroke:#000000;stroke-width:2;stroke-miterlimit:10;}
	.st9{fill:url(#SVGID_00000063630915079958192680000009067347067136726958_);}
	.st10{fill:url(#SVGID_00000042700723893586783620000016609513011665171585_);}
	.st11{fill:url(#SVGID_00000008122097582161219460000016471238632969705857_);}
	.st12{fill:url(#SVGID_00000104669417693721955520000018219911338993277607_);}
	.st13{fill:url(#SVGID_00000113337914198900634740000010789644411006812320_);}
	.st14{fill:url(#SVGID_00000106127456499708977640000006084248618199295880_);}
	.st15{fill:url(#SVGID_00000065052986749976481670000002674127776509139602_);}
	.st16{fill:url(#SVGID_00000022544689038366784260000015813835803817450646_);}
</style>
<path class="st4" d="M262.82,584.83c-17.66-54.91-19.48-114-3.11-169.31c23.64-79.9,79.05-138.17,165.5-176.05
	c102.88-45.08,245.94-7.3,317.64,81.53c47.41,58.74,68.38,123.97,67.77,198.15c-0.65,78.82-1.07,157.67,0.37,236.47
	c0.42,23.22-7.21,28.9-29.1,28.3c-43.83-1.2-87.73,0.36-131.6,0.78c-43.68-1.67-87.36-3.39-131.04-5.01
	c-47.41-1.77-91.11-15.11-132-39.46C322.8,701.86,283.43,648.91,262.82,584.83z"/>
<linearGradient id="SVGID_1_" gradientUnits="userSpaceOnUse" x1="209.495" y1="577.8278" x2="772.0629" y2="577.8278">
	<stop  offset="0" style="stop-color:#FFFFFF"/>
	<stop  offset="3.740906e-03" style="stop-color:#944E9E"/>
	<stop  offset="1" style="stop-color:#B98CC0"/>
</linearGradient>
<path class="st1" d="M223.88,660.11c-17.66-54.91-19.48-114-3.11-169.31c23.64-79.9,79.05-138.17,165.5-176.05
	c102.88-45.08,245.94-7.3,317.64,81.53c47.41,58.74,68.38,123.97,67.77,198.15c-0.65,78.82-1.07,157.67,0.37,236.47
	c0.42,23.22-7.21,28.9-29.1,28.3c-43.83-1.2-87.73,0.36-131.6,0.78c-43.68-1.67-87.36-3.39-131.04-5.01
	c-47.41-1.77-91.11-15.11-132-39.46C283.87,777.14,244.49,724.19,223.88,660.11z"/>
</svg>
