<?xml version="1.0" encoding="utf-8"?>
<!-- Generator: Adobe Illustrator 26.0.1, SVG Export Plug-In . SVG Version: 6.00 Build 0)  -->
<svg version="1.1" id="Livello_1" xmlns="http://www.w3.org/2000/svg" xmlns:xlink="http://www.w3.org/1999/xlink" x="0px" y="0px"
	 viewBox="0 0 1080 1080" style="enable-background:new 0 0 1080 1080;" xml:space="preserve">
<style type="text/css">
	.st0{fill:#FFFFFF;}
	.st1{fill:url(#SVGID_1_);}
	.st2{fill:url(#SVGID_00000054224469342955718070000012954533486624547971_);}
	.st3{fill:none;stroke:#000000;stroke-width:12;stroke-miterlimit:10;}
	.st4{fill:none;stroke:#2F3C4E;stroke-width:12;stroke-miterlimit:10;}
	.st5{fill:url(#SVGID_00000047739193546151226730000008954704727707884972_);}
	.st6{fill:#4D7493;}
	.st7{fill:#F2DC42;}
	.st8{stroke:#000000;stroke-width:2;stroke-miterlimit:10;}
	.st9{fill:url(#SVGID_00000065760497973481030950000018440621120256236949_);}
	.st10{fill:url(#SVGID_00000044878620811213262640000014242688957679054217_);}
	.st11{fill:url(#SVGID_00000040538021435560997990000016171287427319471016_);}
	.st12{fill:url(#SVGID_00000021836484357577252810000015674419432147910042_);}
	.st13{fill:url(#SVGID_00000166671509755521533830000007866264864602876313_);}
	.st14{fill:url(#SVGID_00000075122185341505640440000004469276495584991894_);}
	.st15{fill:url(#SVGID_00000031911751224635624830000008820711888707669676_);}
	.st16{fill:url(#SVGID_00000079446297050400679250000005221763897576746928_);}
</style>
<path class="st4" d="M272.82,584.83c-17.66-54.91-19.48-114-3.11-169.31c23.64-79.9,79.05-138.17,165.5-176.05
	c102.88-45.08,245.94-7.3,317.64,81.53c47.41,58.74,68.38,123.97,67.77,198.15c-0.65,78.82-1.07,157.67,0.37,236.47
	c0.42,23.22-7.21,28.9-29.1,28.3c-43.83-1.2-87.73,0.36-131.6,0.78c-43.68-1.67-87.36-3.39-131.04-5.01
	c-47.41-1.77-91.11-15.11-132-39.46C332.8,701.86,293.43,648.91,272.82,584.83z"/>
<linearGradient id="SVGID_1_" gradientUnits="userSpaceOnUse" x1="219.495" y1="577.8278" x2="782.0629" y2="577.8278">
	<stop  offset="0" style="stop-color:#FFFFFF"/>
	<stop  offset="3.740906e-03" style="stop-color:#E84F6C"/>
	<stop  offset="1" style="stop-color:#F08D9F"/>
</linearGradient>
<path class="st1" d="M233.88,660.11c-17.66-54.91-19.48-114-3.11-169.31c23.64-79.9,79.05-138.17,165.5-176.05
	c102.88-45.08,245.94-7.3,317.64,81.53c47.41,58.74,68.38,123.97,67.77,198.15c-0.65,78.82-1.07,157.67,0.37,236.47
	c0.42,23.22-7.21,28.9-29.1,28.3c-43.83-1.2-87.73,0.36-131.6,0.78c-43.68-1.67-87.36-3.39-131.04-5.01
	c-47.41-1.77-91.11-15.11-132-39.46C293.87,777.14,254.49,724.19,233.88,660.11z"/>
</svg>
